<?xml version="1.0" encoding="utf-8"?>
<!-- Generator: Adobe Illustrator 16.0.0, SVG Export Plug-In . SVG Version: 6.00 Build 0)  -->
<!DOCTYPE svg PUBLIC "-//W3C//DTD SVG 1.1//EN" "http://www.w3.org/Graphics/SVG/1.1/DTD/svg11.dtd">
<svg version="1.1" id="Layer_1" xmlns="http://www.w3.org/2000/svg" xmlns:xlink="http://www.w3.org/1999/xlink" x="0px" y="0px"
	 width="178.194px" height="116.895px" viewBox="0 0 178.194 116.895" enable-background="new 0 0 178.194 116.895"
	 xml:space="preserve">
<path fill-rule="evenodd" clip-rule="evenodd" fill="#FFFFFF" d="M7.355,1.871h163.336c3.428,0,6.206,2.779,6.206,6.207v101.641
	c0,3.428-2.778,6.206-6.206,6.206H7.355c-3.428,0-6.206-2.778-6.206-6.206V8.078C1.149,4.65,3.927,1.871,7.355,1.871L7.355,1.871z"
	/>
<path fill-rule="evenodd" clip-rule="evenodd" fill="#ED1C24" d="M2.07,58.827v50.41c0,2.955,2.425,5.538,5.38,5.538l163.001,0.004
	c2.965,0,5.401-2.705,5.401-5.658l0.001-50.289L2.07,58.827L2.07,58.827z"/>
<polygon fill-rule="evenodd" clip-rule="evenodd" fill="#FFFFFF" points="110.638,64.68 123.042,64.68 123.042,98.122 
	137.877,98.122 137.877,108.701 110.638,108.701 110.638,64.68 "/>
<polygon fill-rule="evenodd" clip-rule="evenodd" fill="#FFFFFF" points="129.487,64.68 143.836,64.68 151.376,77.691 
	158.673,64.68 173.023,64.68 157.213,88.15 157.213,108.701 145.418,108.701 145.418,88.15 129.487,64.68 "/>
<polygon fill-rule="evenodd" clip-rule="evenodd" fill="#FFFFFF" points="11.772,64.68 22.595,64.68 34.269,81.34 45.701,64.68 
	56.645,64.68 56.645,108.701 45.701,108.701 45.701,80.61 35.242,94.595 33.296,94.595 22.595,80.61 22.595,108.701 11.772,108.701 
	11.772,64.68 "/>
<path fill-rule="evenodd" clip-rule="evenodd" fill="#FFFFFF" d="M59.146,86.691c0-12.963,10.943-23.471,24.443-23.471
	s24.443,10.508,24.443,23.471c0,12.962-10.943,23.47-24.443,23.47S59.146,99.653,59.146,86.691L59.146,86.691z"/>
<path fill-rule="evenodd" clip-rule="evenodd" fill="#ED1C24" d="M72.036,86.691c0-7.053,5.172-12.77,11.553-12.77
	s11.552,5.717,11.552,12.77c0,7.052-5.172,12.768-11.552,12.768S72.036,93.743,72.036,86.691L72.036,86.691z"/>
<path fill-rule="evenodd" clip-rule="evenodd" fill="#005BAA" d="M7.665,2.954c-3.09,0-5.594,2.504-5.594,5.594v50.28l173.784,0.005
	l-0.001-50.28c0-3.088-2.545-5.607-5.646-5.607L7.665,2.954L7.665,2.954z"/>
<polygon fill-rule="evenodd" clip-rule="evenodd" fill="#FFFFFF" points="40.755,8.984 53.159,8.984 53.159,53.005 40.755,53.005 
	40.755,8.984 "/>
<polygon fill-rule="evenodd" clip-rule="evenodd" fill="#FFFFFF" points="153.728,8.984 166.254,8.984 166.254,53.005 
	153.728,53.005 153.728,8.984 "/>
<polygon fill-rule="evenodd" clip-rule="evenodd" fill="#FFFFFF" points="11.772,8.984 23.001,8.984 23.001,42.547 37.715,42.547 
	37.715,53.005 11.772,53.005 11.772,8.984 "/>
<path fill-rule="evenodd" clip-rule="evenodd" fill="#FFFFFF" d="M108.856,8.984h12.281V36.71c0,4.165,3.594,7.54,8.026,7.54
	s8.026-3.375,8.026-7.54V8.984h12.16l0.039,31.74c0,0-0.039,13.62-20.226,13.62s-20.308-13.62-20.308-13.62V8.984L108.856,8.984z"/>
<path fill-rule="evenodd" clip-rule="evenodd" fill="#FFFFFF" d="M97.019,57.383l-4.958-5.411
	c-3.295,1.589-7.015,2.483-10.954,2.483c-13.5,0-24.443-10.507-24.443-23.47c0-12.962,10.943-23.47,24.443-23.47
	c13.5,0,24.442,10.508,24.442,23.47c0,5.871-2.244,11.238-5.954,15.354l6.3,6.667L97.019,57.383L97.019,57.383z"/>
<path fill-rule="evenodd" clip-rule="evenodd" fill="#005BAA" d="M87.351,33.548l3.709,3.77c0.969-1.869,1.6-4.025,1.6-6.333
	c0-7.052-5.172-12.769-11.552-12.769c-6.381,0-11.553,5.717-11.553,12.769c0,7.052,5.172,12.769,11.553,12.769
	c1.11,0,2.156-0.204,3.162-0.54l-5.005-5.531L87.351,33.548L87.351,33.548z"/>
</svg>
